<svg width="32" height="23" viewBox="0 0 32 23" fill="none" xmlns="http://www.w3.org/2000/svg">
<path fill-rule="evenodd" clip-rule="evenodd" d="M25.8753 5.75L20.1253 11.5H24.4378C24.4378 16.2581 20.571 20.125 15.8128 20.125C14.361 20.125 12.981 19.7656 11.7878 19.1187L9.68909 21.2175C11.4572 22.3388 13.556 23 15.8128 23C22.1666 23 27.3128 17.8538 27.3128 11.5H31.6253L25.8753 5.75ZM7.1875 11.5C7.1875 6.74188 11.0544 2.875 15.8125 2.875C17.2644 2.875 18.6444 3.23438 19.8375 3.88125L21.9363 1.7825C20.1681 0.66125 18.0694 0 15.8125 0C9.45875 0 4.3125 5.14625 4.3125 11.5H0L5.75 17.25L11.5 11.5H7.1875Z" fill="#B1B1B1"/>
</svg>
