<svg width="27" height="19" viewBox="0 0 27 19" fill="none" xmlns="http://www.w3.org/2000/svg">
<path fill-rule="evenodd" clip-rule="evenodd" d="M13.4997 0.041626C7.45801 0.041626 2.29842 3.79954 0.208008 9.10413C2.29842 14.4087 7.45801 18.1666 13.4997 18.1666C19.5413 18.1666 24.7009 14.4087 26.7913 9.10413C24.7009 3.79954 19.5413 0.041626 13.4997 0.041626ZM13.4997 15.1458C10.1647 15.1458 7.45801 12.4391 7.45801 9.10413C7.45801 5.76913 10.1647 3.06246 13.4997 3.06246C16.8347 3.06246 19.5413 5.76913 19.5413 9.10413C19.5413 12.4391 16.8347 15.1458 13.4997 15.1458ZM13.4997 5.47913C11.4938 5.47913 9.87467 7.09829 9.87467 9.10413C9.87467 11.11 11.4938 12.7291 13.4997 12.7291C15.5055 12.7291 17.1247 11.11 17.1247 9.10413C17.1247 7.09829 15.5055 5.47913 13.4997 5.47913Z" fill="#B1B1B1"/>
</svg>
