<svg xmlns="http://www.w3.org/2000/svg" xmlns:xlink="http://www.w3.org/1999/xlink" width="500" zoomAndPan="magnify" viewBox="0 0 375 374.999991" height="500" preserveAspectRatio="xMidYMid meet" version="1.0"><defs><clipPath id="df051b4499"><path d="M 0 80.113281 L 320 80.113281 L 320 288 L 0 288 Z M 0 80.113281 " clip-rule="nonzero"/></clipPath><clipPath id="19ab94249e"><path d="M 125 89 L 375 89 L 375 294.613281 L 125 294.613281 Z M 125 89 " clip-rule="nonzero"/></clipPath><clipPath id="7bf683ca08"><path d="M 0 80.113281 L 375 80.113281 L 375 294.613281 L 0 294.613281 Z M 0 80.113281 " clip-rule="nonzero"/></clipPath></defs><g clip-path="url(#df051b4499)"><path fill="#f0f0ea" d="M 132.375 271.882812 L 319.367188 159.820312 L 319.367188 175.382812 L 132.328125 287.613281 L 0.46875 208.492188 L 0.46875 192.800781 L 132.328125 271.914062 L 0.46875 192.800781 L 187.507812 80.570312 L 319.367188 159.6875 Z M 132.375 271.882812 " fill-opacity="1" fill-rule="nonzero"/></g><path fill="#363d46" d="M 162.886719 120.503906 L 38.269531 195.273438 L 126.121094 247.988281 L 250.738281 173.214844 Z M 111.171875 206.585938 C 110.941406 206.585938 110.738281 206.511719 110.566406 206.355469 C 110.394531 206.203125 110.292969 206.011719 110.265625 205.785156 C 110.238281 205.554688 110.289062 205.34375 110.421875 205.152344 C 110.550781 204.964844 110.730469 204.839844 110.953125 204.785156 C 139.042969 197.839844 138.363281 182.410156 138.320312 181.753906 C 138.300781 181.503906 138.375 181.28125 138.542969 181.09375 C 138.707031 180.902344 138.917969 180.800781 139.167969 180.78125 C 139.417969 180.761719 139.640625 180.832031 139.832031 180.996094 C 140.023438 181.164062 140.128906 181.371094 140.140625 181.625 C 140.195312 182.339844 141.078125 199.214844 111.394531 206.558594 C 111.320312 206.578125 111.246094 206.585938 111.171875 206.585938 Z M 162.113281 186.433594 C 161.890625 186.46875 139.550781 190.484375 122.625 214.222656 C 122.476562 214.425781 122.28125 214.550781 122.03125 214.59375 C 121.78125 214.636719 121.554688 214.582031 121.347656 214.4375 C 121.140625 214.289062 121.019531 214.089844 120.976562 213.839844 C 120.933594 213.59375 120.988281 213.363281 121.136719 213.160156 C 124.605469 208.21875 128.617188 203.765625 133.160156 199.792969 C 137.707031 195.816406 142.660156 192.441406 148.019531 189.664062 C 152.378906 187.339844 156.976562 185.660156 161.8125 184.628906 C 162.058594 184.59375 162.28125 184.648438 162.480469 184.796875 C 162.683594 184.941406 162.804688 185.136719 162.84375 185.382812 C 162.886719 185.628906 162.835938 185.851562 162.695312 186.058594 C 162.550781 186.261719 162.359375 186.386719 162.113281 186.433594 Z M 162.113281 186.433594 " fill-opacity="1" fill-rule="nonzero"/><path fill="#ceb290" d="M 318.875 187.109375 L 195.304688 263.601562 L 183.640625 256.824219 L 309.203125 181.484375 Z M 159.65625 165.925781 C 158.84375 163.757812 154.347656 163.769531 151.671875 161.882812 C 148.746094 159.816406 146.519531 155.023438 142.535156 154.097656 C 138.820312 153.230469 134.535156 156.484375 130.695312 156.679688 C 126.648438 156.882812 121.914062 154.199219 118.597656 155.664062 C 115.632812 156.972656 115.6875 161.394531 114.339844 163.28125 C 112.625 165.679688 109.039062 167.980469 110.046875 170.644531 C 110.859375 172.808594 115.355469 172.796875 118.03125 174.683594 C 120.953125 176.75 123.183594 181.542969 127.167969 182.472656 C 130.882812 183.335938 135.171875 180.085938 139.007812 179.890625 C 143.054688 179.683594 147.789062 182.367188 151.101562 180.90625 C 154.070312 179.59375 154.015625 175.171875 155.363281 173.289062 C 157.082031 170.886719 160.660156 168.585938 159.65625 165.925781 Z M 191.242188 189.523438 C 193.242188 185.953125 198.015625 183.320312 198.464844 179.761719 C 198.871094 176.515625 195.023438 174.40625 193.972656 172.347656 C 192.679688 169.8125 192.257812 165.617188 189.324219 165.269531 C 187.023438 164.996094 184.839844 168.949219 181.871094 170.257812 C 178.558594 171.722656 173.300781 171.089844 170.425781 173.941406 C 167.695312 176.648438 168.167969 182.007812 166.304688 185.332031 C 164.304688 188.90625 159.53125 191.539062 159.085938 195.097656 C 158.679688 198.339844 162.527344 200.449219 163.578125 202.511719 C 164.867188 205.046875 165.292969 209.242188 168.226562 209.589844 C 170.523438 209.863281 172.707031 205.910156 175.675781 204.597656 C 178.988281 203.136719 184.246094 203.769531 187.125 200.917969 C 189.851562 198.210938 189.382812 192.851562 191.242188 189.523438 Z M 191.242188 189.523438 " fill-opacity="1" fill-rule="nonzero"/><g clip-path="url(#19ab94249e)"><path fill="#f0f0ea" d="M 192.316406 294.441406 L 192.300781 294.101562 L 192.316406 294.441406 L 154.707031 274.199219 L 167.902344 266.292969 L 191.671875 279.085938 L 191.671875 279.054688 L 167.929688 266.277344 L 183.671875 256.839844 L 195.308594 263.605469 L 318.875 187.109375 L 309.308594 181.546875 L 319.367188 175.515625 L 319.367188 159.6875 L 221.214844 100.792969 L 238.90625 89.433594 L 373.890625 162.089844 L 191.777344 278.980469 L 373.890625 162.222656 L 374.539062 177.613281 Z M 141.699219 165.261719 C 138.429688 162.957031 132.675781 162.429688 128.910156 164.089844 C 125.148438 165.753906 124.738281 169 128.007812 171.304688 C 131.277344 173.613281 137.03125 174.140625 140.792969 172.476562 C 144.558594 170.816406 144.964844 167.566406 141.699219 165.261719 Z M 177.871094 194.644531 C 181.632812 192.984375 185.121094 188.375 185.617188 184.410156 C 186.113281 180.445312 183.441406 178.554688 179.675781 180.214844 C 175.914062 181.878906 172.425781 186.484375 171.929688 190.453125 C 171.429688 194.417969 174.105469 196.308594 177.871094 194.644531 Z M 177.871094 194.644531 " fill-opacity="1" fill-rule="nonzero"/></g><g clip-path="url(#7bf683ca08)"><path fill="#050a30" d="M 374.347656 162.203125 C 374.347656 162.179688 374.332031 162.164062 374.328125 162.140625 C 374.335938 162.121094 374.339844 162.097656 374.34375 162.078125 C 374.335938 161.902344 374.257812 161.773438 374.105469 161.691406 L 239.117188 89.035156 C 238.960938 88.949219 238.804688 88.957031 238.65625 89.054688 L 221.199219 100.257812 L 187.742188 80.179688 C 187.585938 80.085938 187.429688 80.085938 187.273438 80.179688 L 0.242188 192.398438 L 0.234375 192.398438 C 0.195312 192.425781 0.160156 192.460938 0.132812 192.503906 C 0.113281 192.523438 0.0898438 192.539062 0.0742188 192.5625 C 0.03125 192.636719 0.0117188 192.714844 0.0117188 192.800781 L 0.0117188 208.496094 C 0.0117188 208.671875 0.0859375 208.800781 0.234375 208.890625 L 132.09375 288.003906 C 132.164062 288.046875 132.246094 288.070312 132.328125 288.070312 C 132.414062 288.070312 132.492188 288.046875 132.5625 288.003906 L 154.707031 274.71875 L 192.101562 294.847656 C 192.160156 294.875 192.222656 294.890625 192.292969 294.894531 C 192.296875 294.894531 192.304688 294.894531 192.308594 294.894531 C 192.316406 294.894531 192.324219 294.886719 192.332031 294.886719 C 192.410156 294.886719 192.484375 294.863281 192.550781 294.824219 L 374.785156 177.992188 C 374.933594 177.898438 375.003906 177.765625 374.996094 177.589844 Z M 187.507812 81.101562 L 256.160156 122.292969 L 318.480469 159.6875 L 132.328125 271.378906 L 1.355469 192.800781 Z M 0.925781 193.601562 L 132.09375 272.304688 C 132.226562 272.382812 132.367188 272.386719 132.507812 272.320312 C 132.523438 272.3125 132.546875 272.316406 132.5625 272.304688 L 132.941406 272.078125 L 318.910156 160.628906 L 318.910156 164.183594 L 132.328125 276 L 0.925781 197.15625 Z M 0.925781 198.222656 L 132.09375 276.921875 C 132.25 277.015625 132.40625 277.015625 132.5625 276.921875 L 318.910156 165.242188 L 318.910156 169.601562 L 132.328125 281.425781 L 0.925781 202.578125 Z M 132.328125 287.078125 L 0.925781 208.234375 L 0.925781 203.644531 L 132.09375 282.347656 C 132.25 282.441406 132.40625 282.441406 132.5625 282.347656 L 318.910156 170.667969 L 318.910156 175.125 L 221.367188 233.652344 L 183.40625 256.425781 Z M 309.3125 182.074219 L 317.992188 187.121094 L 195.304688 263.066406 L 184.578125 256.832031 Z M 165.027344 268.546875 L 167.914062 266.816406 L 191.226562 279.363281 L 191.355469 282.464844 Z M 191.398438 283.523438 L 191.613281 288.585938 L 159.992188 271.5625 L 164.105469 269.097656 Z M 155.632812 274.175781 L 159.234375 272.019531 C 159.265625 272.152344 159.339844 272.25 159.460938 272.316406 L 191.460938 289.542969 C 191.523438 289.574219 191.585938 289.589844 191.65625 289.589844 L 191.8125 293.316406 L 191.824219 293.660156 Z M 191.648438 278.523438 L 168.855469 266.253906 L 183.675781 257.371094 L 195.078125 263.996094 C 195.234375 264.089844 195.390625 264.085938 195.546875 263.988281 L 319.117188 187.496094 C 319.183594 187.453125 319.238281 187.398438 319.277344 187.328125 C 319.316406 187.257812 319.332031 187.179688 319.332031 187.101562 C 319.332031 187.019531 319.308594 186.945312 319.269531 186.875 C 319.230469 186.808594 319.175781 186.753906 319.105469 186.710938 L 310.207031 181.539062 L 319.601562 175.90625 C 319.75 175.820312 319.824219 175.6875 319.824219 175.515625 L 319.824219 159.6875 C 319.824219 159.515625 319.75 159.382812 319.601562 159.296875 L 256.414062 121.382812 L 222.078125 100.78125 L 238.925781 89.964844 L 372.988281 162.128906 Z M 192.265625 282.195312 L 192.144531 279.292969 L 192.308594 279.183594 L 373.46875 163.039062 L 373.59375 165.9375 Z M 192.308594 283.25 L 373.636719 166.996094 L 373.839844 171.824219 C 373.769531 171.828125 373.707031 171.851562 373.648438 171.886719 L 192.507812 288.023438 Z M 192.738281 293.628906 L 192.738281 293.609375 L 192.550781 289.082031 L 373.878906 172.824219 L 374.070312 177.367188 Z M 251.195312 173.214844 C 251.195312 173.042969 251.121094 172.914062 250.976562 172.824219 L 163.121094 120.109375 C 162.964844 120.019531 162.808594 120.019531 162.652344 120.109375 L 38.03125 194.882812 C 37.960938 194.925781 37.90625 194.980469 37.867188 195.050781 C 37.828125 195.121094 37.808594 195.195312 37.808594 195.273438 C 37.808594 195.355469 37.828125 195.429688 37.867188 195.5 C 37.90625 195.570312 37.960938 195.625 38.03125 195.667969 L 125.882812 248.378906 C 125.957031 248.421875 126.035156 248.445312 126.117188 248.445312 C 126.203125 248.445312 126.28125 248.421875 126.355469 248.378906 L 250.972656 173.605469 C 251.121094 173.519531 251.195312 173.390625 251.195312 173.214844 Z M 126.121094 247.449219 L 39.15625 195.265625 L 162.886719 121.035156 L 249.851562 173.21875 Z M 126.121094 247.449219 " fill-opacity="1" fill-rule="nonzero"/></g></svg>