<svg xmlns="http://www.w3.org/2000/svg" xmlns:xlink="http://www.w3.org/1999/xlink" width="500" zoomAndPan="magnify" viewBox="0 0 375 74.999997" height="100" preserveAspectRatio="xMidYMid meet" version="1.0"><defs><g/><clipPath id="9a0f33b0f0"><path d="M 140.867188 15.375 L 193.144531 15.375 L 193.144531 67.652344 L 140.867188 67.652344 Z M 140.867188 15.375 " clip-rule="nonzero"/></clipPath><clipPath id="3e33e4a2bc"><path d="M 193.203125 41.542969 C 193.203125 42.398438 193.160156 43.253906 193.074219 44.105469 C 192.992188 44.957031 192.867188 45.804688 192.699219 46.644531 C 192.53125 47.488281 192.324219 48.316406 192.074219 49.136719 C 191.824219 49.957031 191.539062 50.761719 191.210938 51.554688 C 190.882812 52.347656 190.515625 53.121094 190.113281 53.875 C 189.707031 54.632812 189.269531 55.367188 188.792969 56.078125 C 188.316406 56.792969 187.804688 57.480469 187.261719 58.140625 C 186.71875 58.804688 186.144531 59.4375 185.539062 60.042969 C 184.929688 60.648438 184.296875 61.226562 183.632812 61.769531 C 182.972656 62.3125 182.285156 62.820312 181.570312 63.296875 C 180.859375 63.773438 180.125 64.214844 179.371094 64.617188 C 178.613281 65.023438 177.839844 65.386719 177.046875 65.714844 C 176.257812 66.042969 175.449219 66.332031 174.628906 66.582031 C 173.808594 66.832031 172.980469 67.039062 172.140625 67.207031 C 171.300781 67.371094 170.453125 67.5 169.597656 67.582031 C 168.746094 67.667969 167.890625 67.707031 167.035156 67.707031 C 166.175781 67.707031 165.324219 67.667969 164.46875 67.582031 C 163.617188 67.5 162.769531 67.371094 161.929688 67.207031 C 161.089844 67.039062 160.257812 66.832031 159.4375 66.582031 C 158.617188 66.332031 157.8125 66.042969 157.019531 65.714844 C 156.230469 65.386719 155.457031 65.023438 154.699219 64.617188 C 153.945312 64.214844 153.210938 63.773438 152.496094 63.296875 C 151.785156 62.820312 151.097656 62.3125 150.433594 61.769531 C 149.773438 61.226562 149.136719 60.648438 148.53125 60.042969 C 147.925781 59.4375 147.351562 58.804688 146.808594 58.140625 C 146.261719 57.480469 145.753906 56.792969 145.277344 56.078125 C 144.800781 55.367188 144.359375 54.632812 143.957031 53.875 C 143.554688 53.121094 143.1875 52.347656 142.859375 51.554688 C 142.53125 50.761719 142.242188 49.957031 141.996094 49.136719 C 141.746094 48.316406 141.539062 47.488281 141.371094 46.644531 C 141.203125 45.804688 141.078125 44.957031 140.992188 44.105469 C 140.910156 43.253906 140.867188 42.398438 140.867188 41.542969 C 140.867188 40.683594 140.910156 39.828125 140.992188 38.976562 C 141.078125 38.125 141.203125 37.277344 141.371094 36.4375 C 141.539062 35.59375 141.746094 34.765625 141.996094 33.945312 C 142.242188 33.125 142.53125 32.320312 142.859375 31.527344 C 143.1875 30.734375 143.554688 29.960938 143.957031 29.207031 C 144.359375 28.449219 144.800781 27.714844 145.277344 27.003906 C 145.753906 26.289062 146.261719 25.601562 146.808594 24.941406 C 147.351562 24.277344 147.925781 23.644531 148.53125 23.039062 C 149.136719 22.433594 149.773438 21.859375 150.433594 21.3125 C 151.097656 20.769531 151.785156 20.261719 152.496094 19.785156 C 153.210938 19.308594 153.945312 18.867188 154.699219 18.464844 C 155.457031 18.058594 156.230469 17.695312 157.019531 17.367188 C 157.8125 17.039062 158.617188 16.75 159.4375 16.5 C 160.257812 16.253906 161.089844 16.042969 161.929688 15.875 C 162.769531 15.710938 163.617188 15.585938 164.46875 15.5 C 165.324219 15.417969 166.175781 15.375 167.035156 15.375 C 167.890625 15.375 168.746094 15.417969 169.597656 15.5 C 170.453125 15.585938 171.300781 15.710938 172.140625 15.875 C 172.980469 16.042969 173.808594 16.253906 174.628906 16.5 C 175.449219 16.75 176.257812 17.039062 177.046875 17.367188 C 177.839844 17.695312 178.613281 18.058594 179.371094 18.464844 C 180.125 18.867188 180.859375 19.308594 181.570312 19.785156 C 182.285156 20.261719 182.972656 20.769531 183.632812 21.3125 C 184.296875 21.859375 184.929688 22.433594 185.539062 23.039062 C 186.144531 23.644531 186.71875 24.277344 187.261719 24.941406 C 187.804688 25.601562 188.316406 26.289062 188.792969 27.003906 C 189.269531 27.714844 189.707031 28.449219 190.113281 29.207031 C 190.515625 29.960938 190.882812 30.734375 191.210938 31.527344 C 191.539062 32.320312 191.824219 33.125 192.074219 33.945312 C 192.324219 34.765625 192.53125 35.59375 192.699219 36.4375 C 192.867188 37.277344 192.992188 38.125 193.074219 38.976562 C 193.160156 39.828125 193.203125 40.683594 193.203125 41.542969 Z M 193.203125 41.542969 " clip-rule="nonzero"/></clipPath></defs><g clip-path="url(#9a0f33b0f0)"><g clip-path="url(#3e33e4a2bc)"><path fill="#363d46" d="M 193.144531 15.375 L 140.867188 15.375 L 140.867188 67.652344 L 193.144531 67.652344 Z M 193.144531 15.375 " fill-opacity="1" fill-rule="nonzero"/></g></g><g fill="#363d46" fill-opacity="1"><g transform="translate(59.761062, 62.87621)"><g><path d="M 16.71875 -44.34375 L 16.71875 -19.34375 C 16.71875 -17.300781 17.164062 -15.6875 18.0625 -14.5 C 18.957031 -13.3125 20.410156 -12.71875 22.421875 -12.71875 C 24.421875 -12.71875 25.898438 -13.3125 26.859375 -14.5 C 27.828125 -15.6875 28.3125 -17.300781 28.3125 -19.34375 L 28.3125 -44.34375 L 42.140625 -44.34375 L 42.140625 -19.34375 C 42.140625 -15.132812 41.265625 -11.535156 39.515625 -8.546875 C 37.765625 -5.566406 35.363281 -3.320312 32.3125 -1.8125 C 29.269531 -0.3125 25.867188 0.4375 22.109375 0.4375 C 18.347656 0.4375 15.015625 -0.3125 12.109375 -1.8125 C 9.210938 -3.320312 6.945312 -5.554688 5.3125 -8.515625 C 3.6875 -11.484375 2.875 -15.09375 2.875 -19.34375 L 2.875 -44.34375 Z M 15.40625 -48.03125 C 13.894531 -48.03125 12.628906 -48.539062 11.609375 -49.5625 C 10.585938 -50.582031 10.078125 -51.847656 10.078125 -53.359375 C 10.078125 -54.898438 10.585938 -56.191406 11.609375 -57.234375 C 12.628906 -58.273438 13.894531 -58.796875 15.40625 -58.796875 C 16.988281 -58.796875 18.289062 -58.285156 19.3125 -57.265625 C 20.332031 -56.242188 20.84375 -54.941406 20.84375 -53.359375 C 20.84375 -51.847656 20.320312 -50.582031 19.28125 -49.5625 C 18.238281 -48.539062 16.945312 -48.03125 15.40625 -48.03125 Z M 29.5 -48.03125 C 27.988281 -48.03125 26.722656 -48.539062 25.703125 -49.5625 C 24.679688 -50.582031 24.171875 -51.847656 24.171875 -53.359375 C 24.171875 -54.898438 24.679688 -56.191406 25.703125 -57.234375 C 26.722656 -58.273438 27.988281 -58.796875 29.5 -58.796875 C 31.082031 -58.796875 32.382812 -58.285156 33.40625 -57.265625 C 34.425781 -56.242188 34.9375 -54.941406 34.9375 -53.359375 C 34.9375 -51.847656 34.414062 -50.582031 33.375 -49.5625 C 32.332031 -48.539062 31.039062 -48.03125 29.5 -48.03125 Z M 29.5 -48.03125 "/></g></g></g><g fill="#363d46" fill-opacity="1"><g transform="translate(102.28269, 62.87621)"><g><path d="M 37.953125 -44.34375 L 37.953125 -33.3125 L 26.171875 -33.3125 L 26.171875 0 L 12.28125 0 L 12.28125 -33.3125 L 0.625 -33.3125 L 0.625 -44.34375 Z M 37.953125 -44.34375 "/></g></g></g><g fill="#363d46" fill-opacity="1"><g transform="translate(195.011022, 62.479488)"><g><path d="M 39.390625 -29.125 C 39.390625 -26.320312 38.742188 -23.78125 37.453125 -21.5 C 36.160156 -19.226562 34.25 -17.425781 31.71875 -16.09375 C 29.195312 -14.757812 26.140625 -14.09375 22.546875 -14.09375 L 17.03125 -14.09375 L 17.03125 0 L 3.125 0 L 3.125 -44.34375 L 22.546875 -44.34375 C 27.972656 -44.34375 32.132812 -42.960938 35.03125 -40.203125 C 37.9375 -37.453125 39.390625 -33.757812 39.390625 -29.125 Z M 20.984375 -25.046875 C 23.859375 -25.046875 25.296875 -26.40625 25.296875 -29.125 C 25.296875 -31.832031 23.859375 -33.1875 20.984375 -33.1875 L 17.03125 -33.1875 L 17.03125 -25.046875 Z M 20.984375 -25.046875 "/></g></g></g><g fill="#363d46" fill-opacity="1"><g transform="translate(234.401572, 62.479488)"><g><path d="M 45.71875 -44.34375 L 29.8125 -13.46875 L 29.8125 0 L 15.90625 0 L 15.90625 -13.46875 L 0 -44.34375 L 15.90625 -44.34375 L 22.984375 -28.625 L 30.0625 -44.34375 Z M 45.71875 -44.34375 "/></g></g></g><g fill="#363d46" fill-opacity="1"><g transform="translate(278.864687, 62.479488)"><g><path d="M 31.5625 -6.703125 L 16.78125 -6.703125 L 14.59375 0 L 0 0 L 16.21875 -44.34375 L 32.25 -44.34375 L 48.40625 0 L 33.75 0 Z M 28.1875 -17.15625 L 24.171875 -29.5 L 20.171875 -17.15625 Z M 28.1875 -17.15625 "/></g></g></g></svg>